<svg xmlns="http://www.w3.org/2000/svg" viewBox="0 0 100 100">
    <circle cx="50" cy="50" r="48" fill="#3b82f6" stroke="#2563eb" stroke-width="2" />
    <g transform="translate(25, 30) scale(0.04)">
        <path d="M0,0 L120,0 L135.676,146.718 L67.742,173.718 L0,146.664 L0,0 Z" fill="#ffffff" />
        <path
            d="M67.75,30.95 L67.75,146.95 L67.742,146.95 L30,146.664 L22.25,59.95 L67.75,59.95 L67.75,30.95 Z"
            fill="#3b82f6"
        />
        <path
            d="M67.75,85.95 L41.25,85.95 L39.25,63.95 L67.75,63.95 L67.75,41.95 L22.75,41.95 L23.25,47.95 L28.75,107.95 L67.75,107.95 L67.75,85.95 Z"
            fill="#ffffff"
        />
        <path
            d="M67.75,30.95 L67.75,59.95 L113.25,59.95 L105.5,146.664 L67.75,146.95 L67.75,30.95 Z"
            fill="#3b82f6"
        />
        <path
            d="M67.75,41.95 L67.75,63.95 L96.25,63.95 L94.25,85.95 L67.75,85.95 L67.75,107.95 L93.25,107.95 L91.75,124.95 L67.75,129.95 L67.75,107.95 L67.75,41.95 Z"
            fill="#ffffff"
        />
    </g>
    <path d="M45,50 L55,50 L55,47 L60,52 L55,57 L55,54 L45,54 Z" fill="#ffffff" />
    <g transform="translate(70, 50) scale(0.12)">
        <ellipse
            cx="0"
            cy="0"
            rx="75"
            ry="25"
            fill="none"
            stroke="#ffffff"
            stroke-width="12"
            transform="rotate(30)"
        />
        <ellipse
            cx="0"
            cy="0"
            rx="75"
            ry="25"
            fill="none"
            stroke="#ffffff"
            stroke-width="12"
            transform="rotate(90)"
        />
        <ellipse
            cx="0"
            cy="0"
            rx="75"
            ry="25"
            fill="none"
            stroke="#ffffff"
            stroke-width="12"
            transform="rotate(150)"
        />
        <circle cx="0" cy="0" r="15" fill="#ffffff" />
    </g>
</svg>
